<svg width="81" height="48" viewBox="0 0 81 48" fill="none" xmlns="http://www.w3.org/2000/svg">
<path fill-rule="evenodd" clip-rule="evenodd" d="M80.0628 0.00397707C80.1727 0.00397708 80.2698 0.0027412 80.3556 0.0016483C80.6871 -0.00257454 80.85 -0.00464646 80.9285 0.0750931C81.0042 0.152072 81.0012 0.305294 80.9953 0.606437C80.9934 0.702719 80.9912 0.814123 80.9912 0.942986C80.9971 16.1271 81 31.3132 81 46.5012L81 47.4139C81 47.9697 80.9868 47.9872 80.4007 47.9989L1.01943 47.9989C0.945634 47.9989 0.877135 47.9992 0.813555 47.9995C0.384318 48.0014 0.179313 48.0024 0.0829728 47.9013C-0.00509522 47.8088 -0.00237666 47.6312 0.0028347 47.2911C0.00424708 47.1986 0.00586329 47.0931 0.0058633 46.9751L0.00586732 0.995636C0.00586733 0.869056 0.0040044 0.758448 0.00237875 0.661811C-0.00316691 0.332673 -0.00597865 0.165434 0.0767282 0.0818517C0.161874 -0.00419065 0.337643 -0.00188543 0.694372 0.00280954C0.793087 0.00410845 0.905783 0.00559158 1.03412 0.00543137L80.0628 0.00397707ZM6.05494 5.0603C5.82138 5.0603 5.58636 5.06762 5.35133 5.08225C5.2525 5.08376 5.1723 5.16232 5.16918 5.26069C5.15449 5.49325 5.1442 5.72726 5.1442 5.96129L5.1442 42.5345C5.15889 42.811 5.21471 42.8724 5.47178 42.887C5.64366 42.8954 5.81751 42.895 5.99092 42.8945L6.10635 42.8943L45.797 42.8943C45.9178 42.8943 46.0244 42.8958 46.1183 42.8971C46.468 42.902 46.559 42.9878 46.7287 42.8189C46.8979 42.6506 46.8122 42.5607 46.8074 42.2152C46.806 42.1184 46.8045 42.008 46.8047 41.8822L46.8047 17.3845C46.8047 17.1505 46.8091 16.9164 46.8179 16.6824C46.8159 16.6234 46.8381 16.566 46.8793 16.5236C46.9206 16.4811 46.9774 16.4571 47.0368 16.4572C47.1934 16.4462 47.35 16.4454 47.5067 16.4446L47.6008 16.444L52.3235 16.444C52.4394 16.444 52.5414 16.4426 52.6312 16.4413C52.9613 16.4366 53.1258 16.4343 53.2067 16.5148C53.2871 16.5947 53.2849 16.7563 53.2806 17.0785C53.2795 17.1619 53.2783 17.2563 53.2783 17.3625L53.2783 42.0007C53.2783 42.083 53.2776 42.1578 53.277 42.2257C53.274 42.5545 53.1984 42.6408 53.3564 42.8086C53.529 42.992 53.626 42.8972 53.998 42.8951C54.0601 42.8947 54.1276 42.8943 54.2008 42.8943L73.7376 42.8943C74.0484 42.8943 74.3592 42.903 74.6695 42.9117C74.7815 42.9148 74.8934 42.9179 75.0053 42.9207C75.23 42.9207 75.2991 42.8753 75.2991 42.6398C75.3123 42.1484 75.3196 41.6584 75.3196 41.167L75.3196 6.77159C75.3196 6.51417 75.3196 6.25675 75.3108 5.99932C75.3068 5.86224 75.3061 5.745 75.3055 5.64476C75.3039 5.36122 75.303 5.2137 75.2283 5.13766C75.1473 5.05518 74.9794 5.0568 74.6294 5.06017C74.5508 5.06092 74.4629 5.06177 74.3648 5.06177L6.05494 5.0603Z" fill="#4338CA"/>
<path d="M32 43L23 43L23 17C23 16.4477 23.4477 16 24 16L31 16C31.5523 16 32 16.4477 32 17L32 43Z" fill="#4338CA"/>
<path d="M55 43L46 43L46 17C46 16.4477 46.4477 16 47 16L54 16C54.5523 16 55 16.4477 55 17L55 43Z" fill="#4338CA"/>
</svg>
